<?xml version="1.0" encoding="UTF-8"?>
<svg width="2400" height="1400" viewBox="0 0 2400 1400" fill="none" xmlns="http://www.w3.org/2000/svg" role="img" aria-label="Abstract professional dark background">
  <defs>
    <linearGradient id="g0" x1="0" y1="0" x2="1" y2="1">
      <stop offset="0" stop-color="#05060A"/>
      <stop offset="0.55" stop-color="#070A12"/>
      <stop offset="1" stop-color="#03040A"/>
    </linearGradient>

    <radialGradient id="r1" cx="0" cy="0" r="1" gradientUnits="userSpaceOnUse" gradientTransform="translate(720 420) rotate(35) scale(980 780)">
      <stop offset="0" stop-color="#2B6BFF" stop-opacity="0.55"/>
      <stop offset="0.45" stop-color="#2B6BFF" stop-opacity="0.18"/>
      <stop offset="1" stop-color="#2B6BFF" stop-opacity="0"/>
    </radialGradient>

    <radialGradient id="r2" cx="0" cy="0" r="1" gradientUnits="userSpaceOnUse" gradientTransform="translate(1680 520) rotate(-20) scale(1050 820)">
      <stop offset="0" stop-color="#00D4FF" stop-opacity="0.32"/>
      <stop offset="0.55" stop-color="#00D4FF" stop-opacity="0.12"/>
      <stop offset="1" stop-color="#00D4FF" stop-opacity="0"/>
    </radialGradient>

    <radialGradient id="r3" cx="0" cy="0" r="1" gradientUnits="userSpaceOnUse" gradientTransform="translate(1280 1120) rotate(0) scale(1200 620)">
      <stop offset="0" stop-color="#FFFFFF" stop-opacity="0.10"/>
      <stop offset="0.35" stop-color="#FFFFFF" stop-opacity="0.04"/>
      <stop offset="1" stop-color="#FFFFFF" stop-opacity="0"/>
    </radialGradient>

    <filter id="softBlur" x="-20%" y="-20%" width="140%" height="140%" color-interpolation-filters="sRGB">
      <feGaussianBlur stdDeviation="18" />
    </filter>

    <filter id="grain" x="0" y="0" width="100%" height="100%" color-interpolation-filters="sRGB">
      <feTurbulence type="fractalNoise" baseFrequency="0.8" numOctaves="3" stitchTiles="stitch" />
      <feColorMatrix type="matrix" values="
        1 0 0 0 0
        0 1 0 0 0
        0 0 1 0 0
        0 0 0 0.22 0" />
    </filter>

    <linearGradient id="line" x1="0" y1="0" x2="2400" y2="0">
      <stop offset="0" stop-color="#FFFFFF" stop-opacity="0"/>
      <stop offset="0.35" stop-color="#FFFFFF" stop-opacity="0.08"/>
      <stop offset="0.65" stop-color="#FFFFFF" stop-opacity="0.08"/>
      <stop offset="1" stop-color="#FFFFFF" stop-opacity="0"/>
    </linearGradient>
  </defs>

  <rect width="2400" height="1400" fill="url(#g0)"/>
  <g filter="url(#softBlur)">
    <path d="M0 220 C 520 40, 940 140, 1200 280 C 1540 470, 1900 520, 2400 360 L 2400 0 L 0 0 Z" fill="url(#r1)"/>
    <path d="M0 620 C 520 520, 940 660, 1200 780 C 1540 940, 1900 960, 2400 840 L 2400 0 L 0 0 Z" fill="url(#r2)"/>
    <ellipse cx="1280" cy="1160" rx="1180" ry="560" fill="url(#r3)"/>
  </g>

  <g opacity="0.55">
    <path d="M-120 980 C 380 880, 760 980, 1040 1100 C 1420 1260, 1860 1280, 2520 1100" stroke="url(#line)" stroke-width="2"/>
    <path d="M-120 1060 C 420 960, 820 1060, 1120 1180 C 1500 1340, 1940 1360, 2520 1180" stroke="url(#line)" stroke-width="1.5" opacity="0.85"/>
    <path d="M-120 1140 C 420 1040, 820 1140, 1120 1260 C 1500 1420, 1940 1440, 2520 1260" stroke="url(#line)" stroke-width="1" opacity="0.75"/>
  </g>

  <rect width="2400" height="1400" filter="url(#grain)" opacity="0.18"/>
</svg>
