<svg xmlns="http://www.w3.org/2000/svg" viewBox="0 0 32 32" fill="none">
  <rect width="32" height="32" rx="8" fill="#0a0a0a"/>
  <path fill="#e8c77a" d="M8 10h3.2c2.4 0 4 1.4 4 3.6 0 1.5-.8 2.6-2.1 3.1L16.2 22H13l-2.5-4.2h-.3V22H8V10zm3 5.6c1 0 1.6-.6 1.6-1.5 0-.9-.6-1.5-1.6-1.5h-.7v3h.7z"/>
  <path fill="#f5f0e6" d="M18.5 10h5.8c2.2 0 3.7 1.3 3.7 3.4 0 1.4-.7 2.4-1.9 2.9 1.4.5 2.3 1.7 2.3 3.2 0 2.3-1.8 3.5-4.2 3.5h-5.7V10zm5.4 5.2c.9 0 1.4-.5 1.4-1.2s-.5-1.2-1.4-1.2h-2v2.4h2zm.2 5.1c1 0 1.6-.6 1.6-1.4 0-.9-.6-1.4-1.6-1.4h-2.2v2.8h2.2z"/>
</svg>
